<svg width="26" height="26" viewBox="0 0 26 26" fill="none" xmlns="http://www.w3.org/2000/svg">
<path fill-rule="evenodd" clip-rule="evenodd" d="M14.6945 2.53459L12.846 0.0361176L10.9974 2.53459L8.40587 0.819025L7.52336 3.79905L4.50132 3.07332L4.69126 6.17546L1.60326 6.52709L2.84274 9.37719L0.0612335 10.7638L2.20076 13.0181L0.0612335 15.2724L2.84274 16.6589L1.60326 19.509L4.69126 19.8607L4.50132 22.9628L7.52336 22.2371L8.40587 25.2171L10.9974 23.5015L12.846 26L14.6945 23.5015L17.286 25.2171L18.1685 22.2371L21.1906 22.9628L21.0006 19.8607L24.0886 19.509L22.8492 16.6589L25.6307 15.2724L23.4911 13.0181L25.6307 10.7638L22.8492 9.37719L24.0886 6.52709L21.0006 6.17546L21.1906 3.07332L18.1685 3.79905L17.286 0.819025L14.6945 2.53459ZM12.846 21.3613C17.4538 21.3613 21.1892 17.6259 21.1892 13.0181C21.1892 8.41022 17.4538 4.67483 12.846 4.67483C8.23812 4.67483 4.50272 8.41022 4.50272 13.0181C4.50272 17.6259 8.23812 21.3613 12.846 21.3613Z"/>
</svg>